<?xml version="1.0" encoding="utf-8"?>
<!-- Generator: Adobe Illustrator 23.0.1, SVG Export Plug-In . SVG Version: 6.00 Build 0)  -->
<svg version="1.1" id="b65e45fc-dc06-4d4a-8c35-1e4e9c60dd06"
	 xmlns="http://www.w3.org/2000/svg" xmlns:xlink="http://www.w3.org/1999/xlink" x="0px" y="0px" viewBox="0 0 571.5 658.3"
	 style="enable-background:new 0 0 571.5 658.3;" xml:space="preserve">
<style type="text/css">
	.st0{fill:#354C77;}
	.st1{enable-background:new    ;}
	.st2{fill:#DD6031;}
</style>
<title>employee_management</title>
<g id="a5f0ef9b-c50d-4fea-a729-9ac4e55389d2">
	<path class="st0" d="M48.6,192.8h472.6c2.4-3.1,5.1-6.5,7.9-10c10.3-13,17.6-22.5,21.8-28.5c2.2-2.8,3.4-6.3,3.4-9.9
		c0-4-1-7.1-3-9.4c-10.3-14.6-33.8-38.9-70.7-72.9c-2.9-2.7-6.7-4.2-10.7-4.3c-4.3,0-7.7,1.3-10.3,3.8l-60.9,45.9
		c-12.4-6.3-25.3-11.6-38.6-15.9l-12-78.8c-0.2-3.6-2-7-4.9-9.2c-3-2.4-6.7-3.7-10.5-3.7h-95.1c-8.3,0-13.4,4-15.4,12
		c-3.7,14.3-7.9,40.9-12.4,79.7c-13.4,4.3-26.5,9.7-39,16.3l-59.1-45.9c-3.7-2.9-7.4-4.3-11.1-4.3c-6.3,0-19.8,10.2-40.5,30.6
		s-34.8,35.8-42.2,46.1c-2.6,3.7-3.9,7-3.9,9.9c0,3.4,1.4,6.9,4.3,10.3C29.8,168.7,39.9,181.4,48.6,192.8z"/>
	<path class="st0" d="M514.1,454.7c-79.5-1.6-159-2.9-238.5-2.4c-59.8,0.4-119.5,2.3-179.2,3c-13.3,0.2-26.5,0.4-39.8,0.6
		c-4.2,5.6-9.3,12.1-15.3,19.6c-10.3,13-17.6,22.5-21.8,28.5c-2.2,2.8-3.4,6.3-3.4,9.9c-0.1,3.5,1,7,3,9.8
		c11.1,15.4,34.7,39.4,70.7,72c2.8,3,6.6,4.7,10.7,4.7c3.9,0.1,7.8-1.3,10.7-3.9l60.4-45.9c12.4,6.3,25.3,11.6,38.6,15.9l12,78.9
		c0.2,3.6,2,7,4.9,9.2c3,2.4,6.7,3.7,10.5,3.7h95.1c8.3,0,13.4-4,15.4-12c3.7-14.3,7.9-40.9,12.4-79.7c13.4-4.3,26.5-9.7,39-16.3
		l59.1,46.3c4,2.6,7.7,3.9,11.1,3.9c6.3,0,19.7-10.1,40.3-30.4c20.6-20.3,34.7-35.7,42.4-46.3c2.5-2.7,3.9-6.2,3.9-9.8
		c-0.1-4-1.6-7.8-4.3-10.7C536.4,483.8,523.6,467.6,514.1,454.7z"/>
</g>
<g class="st1">
	<path class="st2" d="M240.5,250.9c0,9.7-3.8,17.9-11.4,24.8c-7.6,6.8-16.8,10.3-27.6,10.3c-10.6,0-19.8-3.4-27.3-10.3
		c-7.6-6.8-11.4-15.1-11.4-24.8c0-4.5,0.7-8.4,2.1-11.7h-17.3c-5.6,0-10.3,2.3-14.1,7c-3.9,4.6-5.8,9.8-5.8,15.5
		c0,4.6,1.6,11.2,4.7,19.7c3.1,8.5,4.7,15.1,4.7,19.7c0,5.5-5.7,10.9-17,16.4c-16.3,7.8-26.9,13.7-31.6,17.7
		c-11.4,9.6-17.1,22.2-17.1,37.8c0,11.7,6.6,19.3,19.9,22.9c6.5,1.8,17.9,2.6,34.1,2.6h106.8c-1.3,7.5-5.7,13.5-13.3,17.9
		c-6.6,3.7-14.1,5.6-22.4,5.6H76.2c-18,0-33.2-3.1-45.6-9.2c-16-8-24-20-24-36c0-17.4,8.7-33.3,26.1-47.6
		c14.3-11.7,31.1-20.3,50.4-25.6c-5.6-12.2-8.3-23.3-8.3-33.3c0-19,10.1-33.4,30.2-43.1c15.5-7.5,34-11.3,55.4-11.3h44.7
		c9.9,0,18.3,3.5,25.2,10.5C237.1,233.2,240.5,241.4,240.5,250.9z"/>
	<path class="st2" d="M571.4,398.4c-4.1,15.6-17.7,23.4-40.7,23.4h-52.6c-16.4,0-24.6-4.7-24.6-14.2c0-3.3,1-7.7,3.1-13l24.3-63.3
		L408.3,411c-7.8,8.7-16.4,13-25.6,13c-1.8,0-3.6-0.1-5.6-0.4c-11.1-1.3-16.7-6.8-16.7-16.7c0-3.8,0.9-7.9,2.6-12.3l36-93
		l-90.4,109.1c-6.1,7.4-14.9,11.1-26.7,11.1h-29.7l59.2-169.2h-81.3l22.1-36.9h97.9c13.5,0,20.2,4.9,20.2,14.8
		c0,3.8-0.9,8.4-2.8,13.8L336,335.1l63-71.3c8-9.2,14.2-15.1,18.5-17.9c7.1-4.5,16.4-6.7,27.7-6.7c3.2,0,6.6,1.1,10.1,3.4
		c5.4,3.5,8.1,8.7,8.1,15.7c0,4.3-1.1,9.1-3.2,14.5l-28.4,73.8l56.4-56.7c8-8,13.3-12.8,16-14.5c4.6-2.6,11.2-3.9,19.8-3.8
		c3.4,0,7,1.3,10.8,3.8c5.9,3.8,8.8,9.4,8.8,16.7c0,4.2-1,8.8-2.9,13.9l-35,92.4H571.4z"/>
</g>
</svg>
