<svg id="b65e45fc-dc06-4d4a-8c35-1e4e9c60dd06" data-name="svg3025" xmlns="http://www.w3.org/2000/svg" viewBox="0 0 571.47 658.29">
  <defs>
    <style>
      .e42770fa-cc28-4132-8071-22c530ac0ca0 {
        fill: #354c77;
      }
      .b45deca2-bf66-4aa7-b7bd-13f421b88fac {
        font-size: 300px;
        fill: #dd6031;
        font-family: Magneto-Bold, Magneto;
        font-weight: 700;
      }
    </style>
  </defs>
  <title>employee_management</title>
  <g id="a5f0ef9b-c50d-4fea-a729-9ac4e55389d2" data-name="g3027"><path
    class="e42770fa-cc28-4132-8071-22c530ac0ca0"
    d="M48.61,192.82H521.19q3.64-4.69,7.88-10,15.42-19.5,21.85-28.5a16.52,16.52,0,0,0,3.43-9.86q0-6-3-9.43-15.42-21.85-70.71-72.86a16.6,16.6,0,0,0-10.72-4.28q-6.42,0-10.28,3.85l-60.86,45.86a265.62,265.62,0,0,0-38.57-15.86l-12-78.85a12.71,12.71,0,0,0-4.93-9.22A16.18,16.18,0,0,0,332.78,0H237.64q-12.44,0-15.43,12-5.57,21.44-12.43,79.71a245,245,0,0,0-39,16.29L111.64,62.14q-5.58-4.28-11.14-4.28-9.44,0-40.5,30.64T17.78,134.57q-3.86,5.58-3.86,9.86,0,5.15,4.29,10.28Q35.52,175.64,48.61,192.82Z"/><path
    class="e42770fa-cc28-4132-8071-22c530ac0ca0"
    d="M514.06,454.68c-79.48-1.65-159-2.94-238.46-2.43-59.75.39-119.46,2.29-179.2,3.05q-19.89.26-39.79.6-6.34,8.33-15.26,19.6Q25.93,495,19.5,504a16.49,16.49,0,0,0-3.43,9.86,16.73,16.73,0,0,0,3,9.85q16.71,23.14,70.71,72a14.75,14.75,0,0,0,10.72,4.72,15.43,15.43,0,0,0,10.71-3.86l60.43-45.86a264.5,264.5,0,0,0,38.57,15.86l12,78.86a12.71,12.71,0,0,0,4.93,9.21,16.19,16.19,0,0,0,10.5,3.65h95.14q12.44,0,15.43-12,5.57-21.43,12.43-79.72a244,244,0,0,0,39-16.28l59.14,46.28q6,3.85,11.14,3.86,9.43,0,40.29-30.43t42.43-46.29a14.29,14.29,0,0,0,3.86-9.85,16.56,16.56,0,0,0-4.29-10.72Q528.42,474.06,514.06,454.68Z"/></g>
  <text class="b45deca2-bf66-4aa7-b7bd-13f421b88fac" transform="translate(0 421.82)">EM</text>
</svg>
